<svg xmlns="http://www.w3.org/2000/svg" viewBox="0 0 1000 560">
      
    <rect width="100%" height="100%" fill="#111827" rx="14"/>
    <rect width="100%" height="48" fill="#1E293B" rx="14"/>
    <rect y="36" width="100%" height="12" fill="#1E293B"/>
    <circle cx="28" cy="24" r="6" fill="#EF4444"/>
    <circle cx="48" cy="24" r="6" fill="#F59E0B"/>
    <circle cx="68" cy="24" r="6" fill="#10B981"/>
    <text x="100" y="29" fill="#94A3B8" font-family="Inter, sans-serif" font-size="13" font-weight="600">Meta Ads Manager | Campanha de Engajamento com Mensagens no WhatsApp</text>
    <rect x="840" y="14" width="130" height="22" rx="11" fill="#10B981" opacity="0.2"/>
    <text x="905" y="29" fill="#10B981" font-family="Inter, sans-serif" font-size="11" font-weight="700" text-anchor="middle">WHATSAPP DIRECT</text>
  
      
      <rect x="60" y="80" width="880" height="440" rx="10" fill="#1E293B"/>
      <text x="90" y="125" fill="#F8FAFC" font-family="Sora" font-size="18" font-weight="700">Configuração do Conjunto: [Destino Apps de Mensagens]</text>
      
      <rect x="90" y="150" width="820" height="70" rx="6" fill="#0F172A"/>
      <text x="115" y="180" fill="#94A3B8" font-family="Inter" font-size="11" font-weight="700" text-transform="uppercase">Local da Conversão</text>
      <text x="115" y="205" fill="#38BDF8" font-family="Inter" font-size="14" font-weight="700">&#9673; Aplicativos de Mensagens (Messaging Apps)</text>

      <rect x="90" y="235" width="820" height="90" rx="6" fill="#0F172A" stroke="#10B981"/>
      <text x="115" y="265" fill="#94A3B8" font-family="Inter" font-size="11" font-weight="700" text-transform="uppercase">Contas Conectadas</text>
      <text x="115" y="295" fill="#10B981" font-family="Inter" font-size="15" font-weight="700">&#10003; WhatsApp Business Oficial: +55 (11) 99999-8888</text>

      <!-- Pre-qualification Template -->
      <rect x="90" y="340" width="820" height="150" rx="6" fill="#0F172A"/>
      <text x="115" y="370" fill="#F97316" font-family="Sora" font-size="14" font-weight="700">Modelo de Mensagem com Botões de Pré-Qualificação:</text>
      <text x="115" y="398" fill="#F8FAFC" font-family="Inter" font-size="12">"Olá! Para passarmos o orçamento em 5 minutos, escolha uma opção abaixo:"</text>
      
      <rect x="115" y="415" width="220" height="30" rx="4" fill="#1E293B"/>
      <text x="225" y="435" fill="#38BDF8" font-family="Inter" font-size="11" font-weight="600" text-anchor="middle">1. Atendimento Particular</text>

      <rect x="350" y="415" width="220" height="30" rx="4" fill="#1E293B"/>
      <text x="460" y="435" fill="#38BDF8" font-family="Inter" font-size="11" font-weight="600" text-anchor="middle">2. Planos Empresariais</text>

      <rect x="585" y="415" width="220" height="30" rx="4" fill="#1E293B"/>
      <text x="695" y="435" fill="#38BDF8" font-family="Inter" font-size="11" font-weight="600" text-anchor="middle">3. Agendamento Urgente</text>
    </svg>