<svg xmlns="http://www.w3.org/2000/svg" viewBox="0 0 1000 560">
      
    <rect width="100%" height="100%" fill="#111827" rx="14"/>
    <rect width="100%" height="48" fill="#1E293B" rx="14"/>
    <rect y="36" width="100%" height="12" fill="#1E293B"/>
    <circle cx="28" cy="24" r="6" fill="#EF4444"/>
    <circle cx="48" cy="24" r="6" fill="#F59E0B"/>
    <circle cx="68" cy="24" r="6" fill="#10B981"/>
    <text x="100" y="29" fill="#94A3B8" font-family="Inter, sans-serif" font-size="13" font-weight="600">Análise de ROI | Recuperação de Vendas Perdidas com GTM Server-Side</text>
    <rect x="840" y="14" width="130" height="22" rx="11" fill="#10B981" opacity="0.2"/>
    <text x="905" y="29" fill="#10B981" font-family="Inter, sans-serif" font-size="11" font-weight="700" text-anchor="middle">RETORNO DO SERVIDOR</text>
  
      
      <!-- Card Left (Without sGTM) -->
      <rect x="60" y="90" width="400" height="380" rx="10" fill="#1E293B" stroke="#EF4444"/>
      <text x="260" y="130" fill="#EF4444" font-family="Sora" font-size="18" font-weight="800" text-anchor="middle">&#10007; Sem Rastreamento Server-Side</text>
      
      <rect x="90" y="160" width="340" height="65" rx="6" fill="#0F172A"/>
      <text x="110" y="190" fill="#94A3B8" font-family="Inter" font-size="11">Perda por Bloqueadores de Anúncios:</text>
      <text x="110" y="212" fill="#EF4444" font-family="Sora" font-size="14" font-weight="700">-22% das conversões não registradas</text>

      <rect x="90" y="240" width="340" height="65" rx="6" fill="#0F172A"/>
      <text x="110" y="270" fill="#94A3B8" font-family="Inter" font-size="11">Tempo de Vida dos Cookies no Safari:</text>
      <text x="110" y="292" fill="#EF4444" font-family="Sora" font-size="14" font-weight="700">Apenas 24 horas (Perda de Atribuição)</text>

      <rect x="90" y="320" width="340" height="65" rx="6" fill="#0F172A"/>
      <text x="110" y="350" fill="#94A3B8" font-family="Inter" font-size="11">Velocidade da Página:</text>
      <text x="110" y="372" fill="#EF4444" font-family="Sora" font-size="14" font-weight="700">Tempo de Bloqueio Alto (4.5s)</text>

      <!-- Card Right (With sGTM) -->
      <rect x="540" y="90" width="400" height="380" rx="10" fill="#1E293B" stroke="#10B981" stroke-width="2"/>
      <text x="740" y="130" fill="#10B981" font-family="Sora" font-size="18" font-weight="800" text-anchor="middle">&#10003; Com GTM Server-Side Ativo</text>
      
      <rect x="570" y="160" width="340" height="65" rx="6" fill="#0F172A"/>
      <text x="590" y="190" fill="#94A3B8" font-family="Inter" font-size="11">Recuperação de Conversões Reais:</text>
      <text x="590" y="212" fill="#10B981" font-family="Sora" font-size="14" font-weight="700">+100% de precisão sem perda por ad blockers</text>

      <rect x="570" y="240" width="340" height="65" rx="6" fill="#0F172A"/>
      <text x="590" y="270" fill="#94A3B8" font-family="Inter" font-size="11">Cookies de Primeira Parte (Subdomínio):</text>
      <text x="590" y="292" fill="#10B981" font-family="Sora" font-size="14" font-weight="700">Retenção de até 90 dias no Safari</text>

      <rect x="570" y="320" width="340" height="65" rx="6" fill="#0F172A"/>
      <text x="590" y="350" fill="#94A3B8" font-family="Inter" font-size="11">Velocidade da Página:</text>
      <text x="590" y="372" fill="#10B981" font-family="Sora" font-size="14" font-weight="700">Carregamento Instantâneo (1.4s)</text>

      <rect x="60" y="485" width="880" height="40" rx="6" fill="#0F172A"/>
      <text x="500" y="510" fill="#10B981" font-family="Inter" font-size="13" font-weight="700" text-anchor="middle">Resultado: O ganho de R$ 3.000 a R$ 15.000 em vendas atribuídas paga com folga o servidor de US$ 20/mês.</text>
    </svg>