<svg xmlns="http://www.w3.org/2000/svg" viewBox="0 0 1000 560">
      
    <rect width="100%" height="100%" fill="#111827" rx="14"/>
    <rect width="100%" height="48" fill="#1E293B" rx="14"/>
    <rect y="36" width="100%" height="12" fill="#1E293B"/>
    <circle cx="28" cy="24" r="6" fill="#EF4444"/>
    <circle cx="48" cy="24" r="6" fill="#F59E0B"/>
    <circle cx="68" cy="24" r="6" fill="#10B981"/>
    <text x="100" y="29" fill="#94A3B8" font-family="Inter, sans-serif" font-size="13" font-weight="600">Checkout em Página Única (One-Page Checkout) | Conversão 3.8%</text>
    <rect x="840" y="14" width="130" height="22" rx="11" fill="#10B981" opacity="0.2"/>
    <text x="905" y="29" fill="#10B981" font-family="Inter, sans-serif" font-size="11" font-weight="700" text-anchor="middle">CRO DE E-COMMERCE</text>
  
      
      <!-- Step 1 Column -->
      <rect x="50" y="80" width="270" height="430" rx="8" fill="#1E293B"/>
      <text x="75" y="115" fill="#38BDF8" font-family="Sora" font-size="14" font-weight="700">1. Seus Dados</text>
      <rect x="75" y="135" width="220" height="36" rx="4" fill="#0F172A"/>
      <text x="90" y="158" fill="#94A3B8" font-family="Inter" font-size="11">Nome completo</text>
      <rect x="75" y="180" width="220" height="36" rx="4" fill="#0F172A"/>
      <text x="90" y="203" fill="#94A3B8" font-family="Inter" font-size="11">E-mail para nota fiscal</text>
      <rect x="75" y="225" width="220" height="36" rx="4" fill="#0F172A"/>
      <text x="90" y="248" fill="#94A3B8" font-family="Inter" font-size="11">WhatsApp celular</text>
      <rect x="75" y="270" width="220" height="36" rx="4" fill="#0F172A"/>
      <text x="90" y="293" fill="#94A3B8" font-family="Inter" font-size="11">CPF / CNPJ</text>

      <!-- Step 2 Column -->
      <rect x="365" y="80" width="270" height="430" rx="8" fill="#1E293B"/>
      <text x="390" y="115" fill="#38BDF8" font-family="Sora" font-size="14" font-weight="700">2. Entrega</text>
      <rect x="390" y="135" width="220" height="36" rx="4" fill="#0F172A"/>
      <text x="405" y="158" fill="#94A3B8" font-family="Inter" font-size="11">CEP (Busca automática)</text>
      <rect x="390" y="180" width="220" height="36" rx="4" fill="#0F172A"/>
      <text x="405" y="203" fill="#94A3B8" font-family="Inter" font-size="11">Rua e Número</text>
      <rect x="390" y="235" width="220" height="60" rx="4" fill="#0F172A" stroke="#10B981"/>
      <text x="405" y="260" fill="#10B981" font-family="Inter" font-size="12" font-weight="700">&#9867; Frete Grátis (Sedex)</text>
      <text x="405" y="280" fill="#94A3B8" font-family="Inter" font-size="10">Entrega prevista: 2 a 4 dias</text>

      <!-- Step 3 Column -->
      <rect x="680" y="80" width="270" height="430" rx="8" fill="#1E293B" stroke="#10B981" stroke-width="2"/>
      <text x="705" y="115" fill="#10B981" font-family="Sora" font-size="14" font-weight="700">3. Pagamento Pix Instantâneo</text>
      
      <rect x="705" y="135" width="220" height="110" rx="6" fill="#090D16" stroke="#10B981"/>
      <text x="815" y="180" fill="#10B981" font-family="Inter" font-size="12" text-anchor="middle">[QR Code Pix Dinâmico]</text>
      <text x="815" y="210" fill="#FFFFFF" font-family="Sora" font-size="14" font-weight="800" text-anchor="middle">R$ 297,00 (-5% OFF)</text>

      <rect x="705" y="260" width="220" height="40" rx="4" fill="#0F172A"/>
      <text x="720" y="285" fill="#F8FAFC" font-family="Inter" font-size="11">Ou Cartão em até 10x de R$ 34,90</text>

      <rect x="705" y="320" width="220" height="50" rx="6" fill="#10B981"/>
      <text x="815" y="351" fill="#FFFFFF" font-family="Sora" font-size="13" font-weight="800" text-anchor="middle">&#128274; Finalizar Pedido</text>

      <text x="815" y="400" fill="#94A3B8" font-family="Inter" font-size="10" text-anchor="middle">Ambiente 100% Criptografado SSL</text>
      <text x="815" y="420" fill="#94A3B8" font-family="Inter" font-size="10" text-anchor="middle">Garantia de 30 Dias Incondicional</text>
    </svg>